HIERARCHY
ROOT Hips
{
	OFFSET 0.000000 0.000000 0.000000
	CHANNELS 6 Xposition Yposition Zposition Zrotation Yrotation Xrotation 
	JOINT LHipJoint
	{
		OFFSET 0.000000 0.000000 0.000000
		CHANNELS 3 Zrotation Yrotation Xrotation
		JOINT LeftUpLeg
		{
			OFFSET 1.363060 -1.794630 0.839290
			CHANNELS 3 Zrotation Yrotation Xrotation
			JOINT LeftLeg
			{
				OFFSET 2.448110 -6.726130 0.000000
				CHANNELS 3 Zrotation Yrotation Xrotation
				JOINT LeftFoot
				{
					OFFSET 2.562200 -7.039590 0.000000
					CHANNELS 3 Zrotation Yrotation Xrotation
					JOINT LeftToeBase
					{
						OFFSET 0.157640 -0.433110 2.322550
						CHANNELS 3 Zrotation Yrotation Xrotation
						End Site
						{
							OFFSET 0.000000 0.000000 0.000000
						}
					}
				}
			}
		}
	}
	JOINT RHipJoint
	{
		OFFSET 0.000000 0.000000 0.000000
		CHANNELS 3 Zrotation Yrotation Xrotation
		JOINT RightUpLeg
		{
			OFFSET -1.305520 -1.794630 0.839290
			CHANNELS 3 Zrotation Yrotation Xrotation
			JOINT RightLeg
			{
				OFFSET -2.542530 -6.985550 0.000000
				CHANNELS 3 Zrotation Yrotation Xrotation
				JOINT RightFoot
				{
					OFFSET -2.568260 -7.056230 0.000000
					CHANNELS 3 Zrotation Yrotation Xrotation
					JOINT RightToeBase
					{
						OFFSET -0.164730 -0.452590 2.363150
						CHANNELS 3 Zrotation Yrotation Xrotation
						End Site
						{
							OFFSET 0.000000 0.000000 0.000000
						}
					}
				}
			}
		}
	}
}
MOTION
Frames: 27
Frame Time: 0.008333
7.928668 15.928168 1.188584 172.783610 -89.696758 -145.979979 -12.040096 -0.480228 -2.407259 -7.633472 3.806576 -50.672027 1.228511 5.371094 78.664960 2.463805 13.468167 -15.953221 -1.789901 0.000000 -19.163600 8.398480 0.081294 -3.124424 18.713511 -4.480876 -50.260173 1.558271 -4.513599 62.340333 -1.744187 -1.213127 -26.801844 1.265900 0.000000 -19.986300
7.774970 15.956102 1.171116 176.038854 -89.578376 -149.211239 -11.767641 -0.590630 -2.353338 -8.170429 3.393288 -52.148839 1.149193 5.345435 78.213741 2.490487 13.333288 -16.562072 -1.906500 0.000001 -18.848100 8.572468 0.095310 -3.268876 18.482009 -4.973483 -49.502878 1.593449 -4.506299 62.079170 -1.628587 -0.798092 -26.453185 1.117800 -0.000000 -21.781100
7.620313 15.983001 1.154322 179.664296 -89.486844 -152.803309 -11.483218 -0.700179 -2.288173 -8.679003 2.954614 -53.600050 1.062446 5.305597 77.650092 2.531774 13.261578 -17.155281 -2.026500 -0.000000 -18.568200 8.748767 0.099291 -3.408489 18.260958 -5.464821 -48.731693 1.637252 -4.499485 61.762905 -1.519034 -0.392035 -26.124299 0.977700 0.000000 -23.638300
7.464395 16.008664 1.138202 -176.380326 -89.425954 -156.713470 -11.191135 -0.811387 -2.210681 -9.160612 2.492482 -55.022334 0.968600 5.250388 76.967953 2.588215 13.253603 -17.727874 -2.150400 -0.000000 -18.383400 8.923423 0.088911 -3.540318 18.053066 -5.947619 -47.948704 1.689632 -4.493398 61.391777 -1.415888 0.002562 -25.815467 0.845701 -0.000000 -25.446300
7.307002 16.032955 1.122778 -172.033945 -89.399600 -161.002755 -10.893415 -0.926008 -2.120844 -9.621432 2.007174 -56.408379 0.866813 5.178200 76.159556 2.659974 13.304479 -18.290197 -2.281300 -0.000000 -18.193800 9.095465 0.061047 -3.661968 17.855924 -6.418411 -47.157656 1.749030 -4.489226 60.966758 -1.317561 0.382819 -25.504517 0.720600 -0.000000 -27.286200
7.147723 16.055753 1.108091 -167.327402 -89.408225 -165.637068 -10.596680 -1.046471 -2.017561 -10.064480 1.499733 -57.751538 0.756581 5.088668 75.214111 2.745749 13.403449 -18.836707 -2.417500 0.000000 -17.969600 9.259297 0.011887 -3.771568 17.668589 -6.871919 -46.362622 1.814301 -4.487373 60.492959 -1.223516 0.747516 -25.183864 0.602300 -0.000000 -29.128200
6.986423 16.076965 1.094261 -162.283322 -89.449837 -170.594103 -10.308139 -1.174526 -1.900186 -10.492556 0.971853 -59.045209 0.637390 4.982534 74.121332 2.842923 13.533938 -19.358023 -2.554700 0.000000 -17.682300 9.408698 -0.060843 -3.868580 17.489535 -7.304130 -45.568082 1.883971 -4.488049 59.978513 -1.133265 1.095985 -24.847864 0.490700 -0.000000 -30.945000
6.822771 16.096511 1.081493 -157.048047 -89.514237 -175.724595 -10.037228 -1.308779 -1.767348 -10.905797 0.429758 -60.287124 0.508179 4.863442 72.873216 2.947721 13.673935 -19.846280 -2.687301 0.000000 -17.241800 9.534826 -0.156922 -3.952798 17.319178 -7.707694 -44.776889 1.956789 -4.489069 59.432892 -1.047444 1.429131 -24.506430 0.386400 -0.000001 -32.577200
6.656760 16.114341 1.069582 -151.041123 -89.620396 178.387468 -9.784256 -1.455602 -1.621665 -11.312677 -0.130954 -61.462448 0.371040 4.727001 71.461551 3.054796 13.804267 -20.256282 -2.800100 -0.000000 -16.886400 9.640180 -0.280989 -4.025560 17.146229 -8.094021 -43.994134 2.031963 -4.496100 58.860642 -0.964108 1.742003 -24.131482 0.288900 0.000000 -34.345400
6.488081 16.130485 1.058882 -144.504265 -89.749595 171.987539 -9.563690 -1.610791 -1.461206 -11.709703 -0.696630 -62.578609 0.223872 4.581761 69.888184 3.158473 13.895790 -20.591526 -2.887400 0.000000 -16.383300 9.709833 -0.430360 -4.087946 16.975899 -8.452097 -43.219329 2.108949 -4.503618 58.272645 -0.886060 2.036503 -23.759891 0.200000 0.000000 -35.924300
6.316856 16.144966 1.049258 -136.725957 -89.921530 164.359484 -9.385768 -1.781710 -1.287946 -12.106621 -1.266425 -63.628347 0.067114 4.428128 68.154926 3.252277 13.926924 -20.823876 -2.936900 -0.000000 -15.862899 9.734918 -0.610390 -4.142492 16.798323 -8.790545 -42.454938 2.188037 -4.514540 57.674013 -0.813271 2.310530 -23.391395 0.119600 -0.000000 -37.413000
6.142908 16.157780 1.040699 53.314653 -89.842536 -25.516157 -9.274567 -1.974722 -1.101342 -12.517409 -1.835847 -64.610699 -0.101563 4.272498 66.266315 3.330381 13.879142 -20.943780 -2.941500 0.000000 -15.366700 9.691028 -0.826115 -4.192587 16.600717 -9.113339 -41.702823 2.268124 -4.527244 57.071792 -0.746616 2.563607 -23.035830 0.048200 0.000000 -38.816600
5.966567 16.169016 1.032930 68.164756 -89.490443 -40.192560 -9.280044 -2.191113 -0.899255 -12.977040 -2.396419 -65.519075 -0.289591 4.131502 64.219034 3.387623 13.743456 -20.944420 -2.897400 -0.000000 -15.010000 9.524788 -1.076382 -4.248516 16.346689 -9.427576 -40.959600 2.341763 -4.531831 56.482113 -0.686157 2.800403 -22.696524 -0.015300 0.000000 -40.184500
5.787608 16.178702 1.025928 90.659923 -89.014768 -62.501218 -9.433974 -2.342215 -0.671342 -13.499511 -2.879391 -66.393822 -0.514625 4.051304 62.007382 3.423268 13.519851 -20.859973 -2.810900 -0.000000 -14.719700 9.194733 -1.285350 -4.325113 16.017571 -9.684447 -40.197619 2.380204 -4.476796 55.938278 -0.632569 3.034490 -22.379135 -0.071300 0.000000 -41.442800
5.606452 16.186820 1.019367 119.840493 -88.452113 -91.494062 -9.583237 -2.216076 -0.424281 -14.017067 -3.152706 -67.305030 -0.783049 4.058990 59.646068 3.441442 13.217405 -20.705378 -2.683600 0.000000 -14.825300 8.859857 -1.273819 -4.430156 15.680909 -9.797076 -39.342738 2.347623 -4.296396 55.452970 -0.582566 3.273577 -22.039045 -0.120800 0.000000 -42.841000
5.426568 16.195426 1.002121 165.179062 -87.087395 -136.704168 -9.136666 -1.494833 -0.432180 -14.816914 -2.284789 -68.246355 -1.159608 4.150216 57.186522 3.447046 12.754761 -20.704086 -2.574400 -0.000000 -15.008200 9.194484 -0.732215 -4.340952 15.103074 -8.909816 -38.282627 2.171856 -3.958119 55.127702 -0.529425 3.464192 -21.644008 -0.163400 -0.000000 -44.267900
5.240821 16.200433 0.996030 169.337649 -87.006110 -140.687355 -8.907257 -1.375158 -0.237478 -15.229978 -2.556310 -68.988342 -1.414308 3.992501 54.744871 3.417099 12.188926 -20.503230 -2.408099 0.000000 -15.608400 9.301997 -0.763728 -4.383045 14.964259 -9.061615 -37.422520 2.208629 -3.895089 54.529487 -0.478649 3.652127 -21.297882 -0.206200 0.000000 -45.659300
5.052831 16.203690 0.990111 172.700021 -86.948230 -143.884788 -8.696550 -1.257821 -0.046836 -15.690556 -2.811535 -69.624303 -1.690451 3.817168 52.217879 3.363470 11.518710 -20.324494 -2.239900 -0.000001 -16.409600 9.402040 -0.811059 -4.427187 14.805845 -9.224137 -36.553722 2.245454 -3.840504 53.936584 -0.426057 3.843784 -20.928764 -0.248500 0.000000 -47.041800
4.862572 16.204952 0.984238 175.348509 -86.910448 -146.384969 -8.506865 -1.141511 0.137859 -16.199456 -3.049918 -70.130580 -1.986818 3.622305 49.606123 3.285335 10.760845 -20.139515 -2.067600 0.000000 -17.812800 9.494671 -0.870240 -4.477091 14.621207 -9.404217 -35.668395 2.278315 -3.793398 53.353905 -0.368772 4.043553 -20.499167 -0.290600 0.000000 -48.625500
4.669914 16.203927 0.978650 177.537914 -86.888417 -148.447042 -8.335873 -1.025773 0.317973 -16.741309 -3.274812 -70.497489 -2.301584 3.405866 46.931009 3.186834 9.932309 -19.983573 -1.902900 0.000000 -19.379600 9.582256 -0.937139 -4.533180 14.413602 -9.600759 -34.765519 2.305958 -3.752693 52.793294 -0.305312 4.264667 -20.009968 -0.334400 0.000001 -50.228301
4.474759 16.200276 0.973522 179.432947 -86.878045 -150.242365 -8.183181 -0.913572 0.492215 -17.294095 -3.486350 -70.709928 -2.626184 3.166123 44.217526 3.070220 9.063571 -19.825670 -1.743300 0.000000 -21.158000 9.667207 -1.009050 -4.597352 14.183298 -9.817669 -33.839120 2.325833 -3.718168 52.262636 -0.234264 4.512496 -19.441230 -0.379300 -0.000000 -51.919900
4.276881 16.193574 0.969108 -178.775286 -86.874680 -151.966733 -8.048622 -0.809595 0.659766 -17.825777 -3.685525 -70.763576 -2.947346 2.904170 41.509669 2.939814 8.194956 -19.631942 -1.587100 0.000000 -23.046600 9.751640 -1.084319 -4.670140 13.933522 -10.057297 -32.885370 2.336572 -3.689648 51.771082 -0.155456 4.792376 -18.788212 -0.424200 0.000000 -53.680000
4.076270 16.183404 0.965648 -176.930456 -86.872996 -153.782889 -7.932766 -0.719961 0.818711 -18.297957 -3.874126 -70.664167 -3.247803 2.625673 38.873867 2.802406 7.375694 -19.372966 -1.434801 0.000000 -24.829400 9.836871 -1.161847 -4.751680 13.667157 -10.322309 -31.902047 2.336753 -3.667128 51.326092 -0.069575 5.105166 -18.045360 -0.466600 0.000000 -55.557500
3.872814 16.169408 0.963349 -174.888748 -86.868199 -155.837054 -7.837226 -0.650217 0.967332 -18.668547 -4.055821 -70.431895 -3.507081 2.341919 36.393580 2.665873 6.662279 -19.005874 -1.285200 0.000000 -26.428800 9.923678 -1.241225 -4.840722 13.387436 -10.612987 -30.890095 2.326132 -3.650525 50.935439 0.021594 5.450957 -17.221996 -0.503800 0.000000 -57.512000
3.666544 16.151233 0.962345 -172.561428 -86.856196 -158.218804 -7.763762 -0.604212 1.103603 -18.898697 -4.237042 -70.099135 -3.705394 2.069618 34.169157 2.539818 6.109966 -18.503756 -1.139100 0.000000 -27.707800 10.012425 -1.322338 -4.935179 13.096457 -10.928813 -29.854005 2.304480 -3.639780 50.604307 0.115721 5.825355 -16.325637 -0.532299 -0.000000 -59.576200
3.457556 16.128739 0.962554 -169.931991 -86.833208 -160.942265 -7.714060 -0.583057 1.225910 -18.958812 -4.426425 -69.709638 -3.826388 1.829072 32.305921 2.433111 5.764691 -17.843956 -0.995200 0.000001 -28.644200 10.103240 -1.405135 -5.031884 12.794529 -11.266500 -28.802920 2.272193 -3.634922 50.338361 0.210214 6.223758 -15.371565 -0.549200 0.000001 -61.737001
3.246107 16.101883 0.963846 -167.052064 -86.796533 -163.952832 -7.689012 -0.585351 1.331566 -18.835317 -4.630513 -69.309868 -3.859997 1.640980 30.905505 2.352452 5.652979 -17.018550 -0.849801 -0.000000 -29.232300 10.196252 -1.489306 -5.127859 12.478445 -11.622831 -27.746630 2.229856 -3.636016 50.141286 0.302794 6.641610 -14.373965 -0.552000 0.000000 -63.991300
